<svg id="Layer_1" data-name="Layer 1" xmlns="http://www.w3.org/2000/svg" viewBox="0 0 775.17 110"><path d="M54.78,289,88.21,265v14.39L63.06,295.81,88.21,312.1v14.34l-33.43-23.9Zm71.27-42.21-9.39,63.12L116.28,269h-7.53l-8.6,40.83,3.42-63.12h-8l-3.23,86h8.48l10.06-45.15.38,45.15h8.54l14.58-86Zm4.87,86h29.39l1.65-15H141.87l2.4-22.51h18.19l1.55-15H145.82l2-18.55H167.9l1.61-15H140ZM172,355.17h33V343.66H172Zm60.39-110c-5.41,0-10,2.88-13.25,8-3,4.78-5.09,11.75-5.09,20.74,0,5.47.73,8.87,2,11.58,1.42,3.18,3.89,5.82,8,9l3.76,2.88a10.24,10.24,0,0,1,3.29,4.27,15.64,15.64,0,0,1,1.11,6.38c0,3.74-.79,6.68-2.4,8.92a7.74,7.74,0,0,1-6.61,3.4,11.21,11.21,0,0,1-6.74-2.48,26.09,26.09,0,0,1-6.42-7.08l-1.87,17.57a36,36,0,0,0,7.56,4.54,18.55,18.55,0,0,0,7.15,1.49c5.79,0,10.44-2.82,13.73-7.89,3.45-5.37,5.06-12.79,5.06-21a34.55,34.55,0,0,0-2.12-13.08,21.82,21.82,0,0,0-6.77-9l-3.67-2.94-.22-.16c-3.83-3-5.82-6.22-5.82-10.2a14.27,14.27,0,0,1,2.34-7.77,7.2,7.2,0,0,1,6.29-3.23,11.8,11.8,0,0,1,6.17,1.79,15.94,15.94,0,0,1,5,5.41l1.8-16.41a21.92,21.92,0,0,0-5.95-3.58A19.72,19.72,0,0,0,232.37,245.17Zm52.86,22.53a75.54,75.54,0,0,1-1.14,12.68,38.38,38.38,0,0,1-3,10.25,17.3,17.3,0,0,1-6.14,7.55,17.62,17.62,0,0,1-9.52,2.35h-5.19l-3.45,32.2h-9.33l9.2-86h13.29c5,0,8.76,1.73,11.39,5.23S285.23,260.62,285.23,267.7ZM275.52,271c0-3.74-.54-6.39-1.65-7.83s-3-2.19-5.6-2.19h-3.83l-2.66,25.23h4.52a7.64,7.64,0,0,0,6.93-3.92C274.76,279.74,275.52,275.71,275.52,271Zm45.93-5.37c0-5.92-1.23-11.23-3.86-15a12.28,12.28,0,0,0-10.47-5.53,19.56,19.56,0,0,0-5.73.93,30.12,30.12,0,0,0-6.36,2.77l-1.71,15.44a35.83,35.83,0,0,1,6.64-3.52,15.94,15.94,0,0,1,5.73-1.21,6.41,6.41,0,0,1,5.22,2.19,9.49,9.49,0,0,1,1.8,6.22,12.91,12.91,0,0,1-2.44,8.06,7.8,7.8,0,0,1-6.39,3.23h-5l-1.65,15h5A6.54,6.54,0,0,1,307.7,297c1.36,1.86,2,4.62,2,8.23,0,4.61-1,8.3-2.56,10.76a8.25,8.25,0,0,1-7.56,4,17,17,0,0,1-6.55-1.39,23.45,23.45,0,0,1-6.33-4L285,330.12a46.73,46.73,0,0,0,7.5,3.18,23.14,23.14,0,0,0,6.8,1.09,16,16,0,0,0,14.11-7.77c3.42-5.23,5.16-12.49,5.16-21,0-5.36-.7-9.27-2.09-12.5a12.92,12.92,0,0,0-6.33-6.8,13.91,13.91,0,0,0,8.29-7.26A28,28,0,0,0,321.45,265.67Zm41.47-3.95,1.61-15H335.05l-9.11,86h29.39l1.65-15H336.89l2.4-22.51h18.19l1.55-15H340.84l2-18.55h20.09Zm44.38-15h-11l-17.81,32.07,3.42-32.07h-9.33l-9.11,86h9.3l3-28.8,5.44-9.8,8,38.59h9.58l-10.69-51.21ZM406,355.17h33V343.66H406Zm66.08-108.43h-8.92L452.86,251l-1.61,15.32L461.4,262l-5.95,55.81H445l-1.61,15h29.29l1.61-15h-9.77Zm33.75,62.48L499,246.74h-9.58l-9.21,86h8.32l6.67-62.48,7.12,62.48h9.27l9.11-86h-8.22ZM523,355.17h33V343.66H523Zm63.77-110a14,14,0,0,0-8.95,3.28,27.33,27.33,0,0,0-7.18,9.62,79.81,79.81,0,0,0-6,20.05,141.28,141.28,0,0,0-2.25,24.82c0,9.91,1.17,18,4,23.55s7,7.9,11.61,7.9a13.65,13.65,0,0,0,5.22-1,18.89,18.89,0,0,0,5-3.12l2-18.88a28.52,28.52,0,0,1-5.5,6.11,8.11,8.11,0,0,1-5,2c-2.56,0-4.49-1.5-5.82-4.44-1.42-3.23-2-7.71-2-13.19a104.52,104.52,0,0,1,1.36-16.23,78.79,78.79,0,0,1,3.51-14.69,24.9,24.9,0,0,1,4.14-7.82,6.91,6.91,0,0,1,5.19-2.7,7.8,7.8,0,0,1,4.87,1.95,15,15,0,0,1,3.86,5.93l2-18.88a19.85,19.85,0,0,0-4.9-3.12A12.81,12.81,0,0,0,586.79,245.17Zm50.86,31.5q0,5.2-.48,11.48c-.32,4.19-.84,8.43-1.57,12.69a110.54,110.54,0,0,1-2.85,12.41,51.14,51.14,0,0,1-4.37,10.65,25.62,25.62,0,0,1-6.11,7.48,12.37,12.37,0,0,1-8,2.83,9.79,9.79,0,0,1-5.71-1.77,14.11,14.11,0,0,1-4.42-5.38,33.89,33.89,0,0,1-2.87-9.1,71.46,71.46,0,0,1-1-12.92c0-3.47.16-7.3.48-11.51s.84-8.45,1.57-12.7a107.26,107.26,0,0,1,2.87-12.38,52.12,52.12,0,0,1,4.39-10.66,25.59,25.59,0,0,1,6.11-7.48,12.54,12.54,0,0,1,8-2.82,9.8,9.8,0,0,1,5.69,1.77,13.91,13.91,0,0,1,4.42,5.38,34.16,34.16,0,0,1,2.85,9.1A71.73,71.73,0,0,1,637.65,276.67Zm-9.16,10.58-19.41,22.39c.3,4,1,7,2.08,8.92a4.88,4.88,0,0,0,4.37,2.88,5.09,5.09,0,0,0,3.42-1.39,13.68,13.68,0,0,0,2.91-3.81,34.68,34.68,0,0,0,2.4-5.71,69.83,69.83,0,0,0,1.9-7.06q.83-3.78,1.41-7.92C627.94,292.8,628.26,290,628.49,287.25Zm.28-15.21c-.28-4-1-6.93-2-8.88a4.87,4.87,0,0,0-4.37-2.92q-2.75,0-5,3a28.5,28.5,0,0,0-3.82,7.88,77.17,77.17,0,0,0-2.68,11c-.71,4.07-1.21,8.14-1.52,12.24Zm45.8,3.32c0,2.77-.13,6.86-.41,10.49-.25,3.17-.79,8.41-1.3,12.15A124.17,124.17,0,0,1,670,312.74a45.19,45.19,0,0,1-3.92,10.14,19.37,19.37,0,0,1-7.15,7.55c-2.69,1.55-6.36,2.3-11,2.3H637.46l9.21-86h10c5.85,0,10.47,2.24,13.51,7.08C673.09,258.49,674.57,265.75,674.57,275.36Zm-9.65,2.06c0-5.58-.66-9.21-2-11.69a6.45,6.45,0,0,0-6.07-3.69H654.3l-5.88,55.35h3a8,8,0,0,0,6-2.54c1.77-1.78,2.88-4.32,3.8-7.6a108.92,108.92,0,0,0,2.69-14.58A130.82,130.82,0,0,0,664.92,277.42Zm47.23-11.75c0-5.92-1.23-11.23-3.86-15a12.28,12.28,0,0,0-10.47-5.53,19.56,19.56,0,0,0-5.73.93,30.12,30.12,0,0,0-6.36,2.77L684,264.31a35.83,35.83,0,0,1,6.64-3.52,15.94,15.94,0,0,1,5.73-1.21,6.41,6.41,0,0,1,5.22,2.19,9.49,9.49,0,0,1,1.8,6.22,12.91,12.91,0,0,1-2.44,8.06,7.8,7.8,0,0,1-6.39,3.23h-5l-1.64,15h5a6.54,6.54,0,0,1,5.44,2.77c1.36,1.86,2,4.62,2,8.23,0,4.61-.95,8.3-2.56,10.76a8.25,8.25,0,0,1-7.56,4,17,17,0,0,1-6.55-1.39,23.45,23.45,0,0,1-6.33-4l-1.71,15.54a46.73,46.73,0,0,0,7.5,3.18,23.14,23.14,0,0,0,6.8,1.09,16,16,0,0,0,14.11-7.77c3.42-5.23,5.16-12.49,5.16-21,0-5.36-.7-9.27-2.09-12.5a12.92,12.92,0,0,0-6.33-6.8,13.91,13.91,0,0,0,8.29-7.26A28.15,28.15,0,0,0,712.15,265.67ZM746.51,282l-2.28,16.88h7.59l-1.71,12.38h-7.62l-3,21.49h-7l3-21.49H729l-3,21.49h-7l3-21.49h-7.59l1.68-12.38h7.65L726.05,282h-7.59l1.68-12.38h7.66l3-21.55h7l-3,21.55h6.48l3-21.55h7l-3,21.55h7.59L754.14,282Zm-7,0H733.1l-2.34,16.88h6.42Zm15.21,61.68h7l27-96.92h-7.05ZM796.52,265v14.39l25.15,16.42-25.15,16.29v14.34L830,302.52V288.93Z" transform="translate(-54.78 -245.17)"/></svg>